<mxfile host="app.diagrams.net" modified="2023-11-30T15:29:18.678Z" agent="Mozilla/5.0 (Windows NT 10.0; Win64; x64) AppleWebKit/537.36 (KHTML, like Gecko) Chrome/119.0.0.0 Safari/537.36" etag="k_6yDe4rNPnraTkdnQDQ" version="22.1.5" type="github">
  <diagram name="Page-1" id="B5yTWrJ47T2mOAO-xigN">
    <mxGraphModel dx="2284" dy="782" grid="1" gridSize="10" guides="1" tooltips="1" connect="1" arrows="1" fold="1" page="1" pageScale="1" pageWidth="850" pageHeight="1100" math="0" shadow="0">
      <root>
        <mxCell id="0" />
        <mxCell id="1" parent="0" />
        <mxCell id="LFtlr_HMFEoI2J_1FoKJ-4" value="" style="shape=image;verticalLabelPosition=bottom;labelBackgroundColor=default;verticalAlign=top;aspect=fixed;imageAspect=0;image=https://i.imgur.com/YR6IKgm.png;clipPath=inset(3.64% 0% 10.92% 0%);" parent="1" vertex="1">
          <mxGeometry x="-840" y="10" width="157" height="116.70333333333332" as="geometry" />
        </mxCell>
        <mxCell id="LyeWaFvupgN1CY5PztgA-12" style="edgeStyle=orthogonalEdgeStyle;rounded=0;orthogonalLoop=1;jettySize=auto;html=1;" parent="1" source="LFtlr_HMFEoI2J_1FoKJ-5" target="LyeWaFvupgN1CY5PztgA-10" edge="1">
          <mxGeometry relative="1" as="geometry" />
        </mxCell>
        <mxCell id="LFtlr_HMFEoI2J_1FoKJ-5" value="" style="shape=image;verticalLabelPosition=bottom;labelBackgroundColor=default;verticalAlign=top;aspect=fixed;imageAspect=0;image=https://i.imgur.com/BSGpTbH.png;clipPath=inset(11% 0% 17% 0%);" parent="1" vertex="1">
          <mxGeometry x="-839.58" y="140" width="157" height="113.04" as="geometry" />
        </mxCell>
        <mxCell id="LyeWaFvupgN1CY5PztgA-13" style="edgeStyle=orthogonalEdgeStyle;rounded=0;orthogonalLoop=1;jettySize=auto;html=1;" parent="1" source="LFtlr_HMFEoI2J_1FoKJ-7" target="LyeWaFvupgN1CY5PztgA-10" edge="1">
          <mxGeometry relative="1" as="geometry" />
        </mxCell>
        <mxCell id="LFtlr_HMFEoI2J_1FoKJ-7" value="" style="shape=image;verticalLabelPosition=bottom;labelBackgroundColor=default;verticalAlign=top;aspect=fixed;imageAspect=0;image=https://i.imgur.com/QXEWr8W.jpg;clipPath=inset(28.5% 0.5% 2% 0%);" parent="1" vertex="1">
          <mxGeometry x="-839.58" y="270" width="157" height="109.66331658291458" as="geometry" />
        </mxCell>
        <mxCell id="LFtlr_HMFEoI2J_1FoKJ-8" value="" style="shape=image;verticalLabelPosition=bottom;labelBackgroundColor=default;verticalAlign=top;aspect=fixed;imageAspect=0;image=https://i.imgur.com/bPgNFiQ.jpg;clipPath=inset(23.33% 0% 6.33% 0%);" parent="1" vertex="1">
          <mxGeometry x="-840" y="400" width="157" height="110.42333333333333" as="geometry" />
        </mxCell>
        <mxCell id="LyeWaFvupgN1CY5PztgA-3" value="" style="shape=image;verticalLabelPosition=bottom;labelBackgroundColor=default;verticalAlign=top;aspect=fixed;imageAspect=0;image=https://i.imgur.com/36HHbJn.png;" parent="1" vertex="1">
          <mxGeometry x="-180" y="10" width="157" height="151" as="geometry" />
        </mxCell>
        <mxCell id="LyeWaFvupgN1CY5PztgA-19" style="edgeStyle=orthogonalEdgeStyle;rounded=0;orthogonalLoop=1;jettySize=auto;html=1;startArrow=classicThin;startFill=0;" parent="1" source="LyeWaFvupgN1CY5PztgA-4" target="LyeWaFvupgN1CY5PztgA-8" edge="1">
          <mxGeometry relative="1" as="geometry" />
        </mxCell>
        <mxCell id="LyeWaFvupgN1CY5PztgA-4" value="" style="fontColor=#0066CC;verticalAlign=top;verticalLabelPosition=bottom;labelPosition=center;align=center;html=1;outlineConnect=0;fillColor=#CCCCCC;strokeColor=#6881B3;gradientColor=none;gradientDirection=north;strokeWidth=2;shape=mxgraph.networks.radio_tower;" parent="1" vertex="1">
          <mxGeometry x="-340" y="10" width="80" height="140" as="geometry" />
        </mxCell>
        <mxCell id="LyeWaFvupgN1CY5PztgA-6" value="" style="shape=image;html=1;verticalAlign=top;verticalLabelPosition=bottom;labelBackgroundColor=#ffffff;imageAspect=0;aspect=fixed;image=https://cdn0.iconfinder.com/data/icons/evericons-24px-vol-2/24/bell-alert-128.png;imageBackground=none;" parent="1" vertex="1">
          <mxGeometry x="-165.5" y="389.74" width="128" height="128" as="geometry" />
        </mxCell>
        <mxCell id="LyeWaFvupgN1CY5PztgA-23" style="edgeStyle=orthogonalEdgeStyle;rounded=0;orthogonalLoop=1;jettySize=auto;html=1;entryX=0.5;entryY=0;entryDx=0;entryDy=0;" parent="1" source="LyeWaFvupgN1CY5PztgA-7" target="LyeWaFvupgN1CY5PztgA-22" edge="1">
          <mxGeometry relative="1" as="geometry" />
        </mxCell>
        <mxCell id="LyeWaFvupgN1CY5PztgA-7" value="" style="shape=image;html=1;verticalAlign=top;verticalLabelPosition=bottom;labelBackgroundColor=#ffffff;imageAspect=0;aspect=fixed;image=https://cdn2.iconfinder.com/data/icons/whcompare-isometric-web-hosting-servers/50/cloud-server-128.png" parent="1" vertex="1">
          <mxGeometry x="-489" y="200" width="128" height="128" as="geometry" />
        </mxCell>
        <mxCell id="LyeWaFvupgN1CY5PztgA-21" style="edgeStyle=orthogonalEdgeStyle;rounded=0;orthogonalLoop=1;jettySize=auto;html=1;entryX=1;entryY=0.5;entryDx=0;entryDy=0;" parent="1" source="LyeWaFvupgN1CY5PztgA-8" target="LyeWaFvupgN1CY5PztgA-7" edge="1">
          <mxGeometry relative="1" as="geometry" />
        </mxCell>
        <mxCell id="LyeWaFvupgN1CY5PztgA-26" style="edgeStyle=orthogonalEdgeStyle;rounded=0;orthogonalLoop=1;jettySize=auto;html=1;entryX=0.5;entryY=0;entryDx=0;entryDy=0;strokeColor=#FF3333;strokeWidth=3;" parent="1" source="LyeWaFvupgN1CY5PztgA-8" target="LyeWaFvupgN1CY5PztgA-6" edge="1">
          <mxGeometry relative="1" as="geometry">
            <Array as="points">
              <mxPoint x="-101" y="290" />
            </Array>
          </mxGeometry>
        </mxCell>
        <mxCell id="LyeWaFvupgN1CY5PztgA-8" value="" style="image;points=[];aspect=fixed;html=1;align=center;shadow=0;dashed=0;image=img/lib/allied_telesis/computer_and_terminals/Smartphone.svg;" parent="1" vertex="1">
          <mxGeometry x="-250.22000000000003" y="187.4" width="70.22" height="153.2" as="geometry" />
        </mxCell>
        <mxCell id="LyeWaFvupgN1CY5PztgA-10" value="" style="image;aspect=fixed;html=1;points=[];align=center;fontSize=12;image=img/lib/azure2/general/Location.svg;" parent="1" vertex="1">
          <mxGeometry x="-630" y="196.5" width="74.08" height="131.5" as="geometry" />
        </mxCell>
        <mxCell id="LyeWaFvupgN1CY5PztgA-11" style="edgeStyle=orthogonalEdgeStyle;rounded=0;orthogonalLoop=1;jettySize=auto;html=1;entryX=0.486;entryY=0.019;entryDx=0;entryDy=0;entryPerimeter=0;" parent="1" source="LFtlr_HMFEoI2J_1FoKJ-4" target="LyeWaFvupgN1CY5PztgA-10" edge="1">
          <mxGeometry relative="1" as="geometry" />
        </mxCell>
        <mxCell id="LyeWaFvupgN1CY5PztgA-14" style="edgeStyle=orthogonalEdgeStyle;rounded=0;orthogonalLoop=1;jettySize=auto;html=1;entryX=0.495;entryY=0.982;entryDx=0;entryDy=0;entryPerimeter=0;" parent="1" source="LFtlr_HMFEoI2J_1FoKJ-8" target="LyeWaFvupgN1CY5PztgA-10" edge="1">
          <mxGeometry relative="1" as="geometry" />
        </mxCell>
        <mxCell id="LyeWaFvupgN1CY5PztgA-17" style="edgeStyle=orthogonalEdgeStyle;rounded=0;orthogonalLoop=1;jettySize=auto;html=1;entryX=0.078;entryY=0.486;entryDx=0;entryDy=0;entryPerimeter=0;" parent="1" source="LyeWaFvupgN1CY5PztgA-10" target="LyeWaFvupgN1CY5PztgA-7" edge="1">
          <mxGeometry relative="1" as="geometry" />
        </mxCell>
        <mxCell id="LyeWaFvupgN1CY5PztgA-20" style="edgeStyle=orthogonalEdgeStyle;rounded=0;orthogonalLoop=1;jettySize=auto;html=1;entryX=1.009;entryY=0.472;entryDx=0;entryDy=0;entryPerimeter=0;startArrow=block;startFill=1;" parent="1" source="LyeWaFvupgN1CY5PztgA-3" target="LyeWaFvupgN1CY5PztgA-8" edge="1">
          <mxGeometry relative="1" as="geometry" />
        </mxCell>
        <mxCell id="LyeWaFvupgN1CY5PztgA-22" value="&lt;b style=&quot;font-size: 13px;&quot;&gt;If Yes&lt;br&gt;Location Smartphone is nearby&lt;br&gt;Location Disaster?&lt;/b&gt;" style="rhombus;whiteSpace=wrap;html=1;" parent="1" vertex="1">
          <mxGeometry x="-535" y="360" width="220" height="153.74" as="geometry" />
        </mxCell>
        <mxCell id="LyeWaFvupgN1CY5PztgA-25" style="edgeStyle=orthogonalEdgeStyle;rounded=0;orthogonalLoop=1;jettySize=auto;html=1;entryX=0.573;entryY=1.016;entryDx=0;entryDy=0;entryPerimeter=0;strokeColor=#FF3333;strokeWidth=3;" parent="1" source="LyeWaFvupgN1CY5PztgA-22" target="LyeWaFvupgN1CY5PztgA-8" edge="1">
          <mxGeometry relative="1" as="geometry" />
        </mxCell>
      </root>
    </mxGraphModel>
  </diagram>
</mxfile>
